<svg width="24" height="24" viewBox="0 0 24 24" fill="none" xmlns="http://www.w3.org/2000/svg">
<path d="M11.9982 2.25C10.3149 2.24963 8.66018 2.68508 7.19508 3.51396C5.72999 4.34285 4.50445 5.53692 3.63776 6.97997C2.77106 8.42301 2.29274 10.0659 2.24934 11.7486C2.20594 13.4314 2.59894 15.0967 3.3901 16.5825L2.32603 19.7747C2.2379 20.039 2.2251 20.3226 2.28909 20.5938C2.35309 20.8649 2.49133 21.1129 2.68833 21.3099C2.88534 21.5069 3.13331 21.6451 3.40447 21.7091C3.67562 21.7731 3.95924 21.7603 4.22353 21.6722L7.41572 20.6081C8.72332 21.3036 10.1722 21.6921 11.6523 21.744C13.1324 21.7959 14.605 21.51 15.9581 20.9079C17.3112 20.3057 18.5094 19.4033 19.4617 18.269C20.4139 17.1346 21.0953 15.7983 21.454 14.3613C21.8127 12.9244 21.8393 11.4246 21.5318 9.97578C21.2243 8.52701 20.5908 7.16732 19.6794 5.99992C18.7679 4.83253 17.6025 3.88811 16.2716 3.23836C14.9407 2.58861 13.4793 2.25061 11.9982 2.25ZM7.87322 13.125C7.65072 13.125 7.43321 13.059 7.24821 12.9354C7.0632 12.8118 6.91901 12.6361 6.83386 12.4305C6.74871 12.225 6.72643 11.9988 6.76984 11.7805C6.81325 11.5623 6.92039 11.3618 7.07773 11.2045C7.23506 11.0472 7.43552 10.94 7.65375 10.8966C7.87197 10.8532 8.09817 10.8755 8.30374 10.9606C8.50931 11.0458 8.68501 11.19 8.80863 11.375C8.93224 11.56 8.99822 11.7775 8.99822 12C8.99822 12.2984 8.8797 12.5845 8.66872 12.7955C8.45774 13.0065 8.17159 13.125 7.87322 13.125ZM11.9982 13.125C11.7757 13.125 11.5582 13.059 11.3732 12.9354C11.1882 12.8118 11.044 12.6361 10.9589 12.4305C10.8737 12.225 10.8514 11.9988 10.8948 11.7805C10.9382 11.5623 11.0454 11.3618 11.2027 11.2045C11.3601 11.0472 11.5605 10.94 11.7787 10.8966C11.997 10.8532 12.2232 10.8755 12.4287 10.9606C12.6343 11.0458 12.81 11.19 12.9336 11.375C13.0572 11.56 13.1232 11.7775 13.1232 12C13.1232 12.2984 13.0047 12.5845 12.7937 12.7955C12.5827 13.0065 12.2966 13.125 11.9982 13.125ZM16.1232 13.125C15.9007 13.125 15.6832 13.059 15.4982 12.9354C15.3132 12.8118 15.169 12.6361 15.0839 12.4305C14.9987 12.225 14.9764 11.9988 15.0198 11.7805C15.0632 11.5623 15.1704 11.3618 15.3277 11.2045C15.4851 11.0472 15.6855 10.94 15.9037 10.8966C16.122 10.8532 16.3482 10.8755 16.5537 10.9606C16.7593 11.0458 16.935 11.19 17.0586 11.375C17.1822 11.56 17.2482 11.7775 17.2482 12C17.2482 12.2984 17.1297 12.5845 16.9187 12.7955C16.7077 13.0065 16.4216 13.125 16.1232 13.125Z" fill="white"/>
</svg>
