<svg width="20" height="20" viewBox="0 0 20 20" fill="none" xmlns="http://www.w3.org/2000/svg">
<path d="M16.668 3.33301H3.33464C2.41797 3.33301 1.6763 4.08301 1.6763 4.99967L1.66797 14.9997C1.66797 15.9163 2.41797 16.6663 3.33464 16.6663H16.668C17.5846 16.6663 18.3346 15.9163 18.3346 14.9997V4.99967C18.3346 4.08301 17.5846 3.33301 16.668 3.33301ZM16.3346 6.87467L10.443 10.558C10.1763 10.7247 9.8263 10.7247 9.55964 10.558L3.66797 6.87467C3.58441 6.82777 3.51123 6.76439 3.45288 6.68839C3.39452 6.61238 3.35219 6.52532 3.32845 6.43248C3.30471 6.33964 3.30005 6.24295 3.31477 6.14826C3.32948 6.05357 3.36325 5.96285 3.41404 5.88159C3.46482 5.80033 3.53157 5.73022 3.61024 5.6755C3.68891 5.62079 3.77786 5.5826 3.87171 5.56326C3.96557 5.54391 4.06237 5.54381 4.15626 5.56296C4.25016 5.58212 4.33919 5.62012 4.41797 5.67467L10.0013 9.16634L15.5846 5.67467C15.6634 5.62012 15.7524 5.58212 15.8463 5.56296C15.9402 5.54381 16.037 5.54391 16.1309 5.56326C16.2247 5.5826 16.3137 5.62079 16.3924 5.6755C16.471 5.73022 16.5378 5.80033 16.5886 5.88159C16.6394 5.96285 16.6731 6.05357 16.6878 6.14826C16.7025 6.24295 16.6979 6.33964 16.6742 6.43248C16.6504 6.52532 16.6081 6.61238 16.5497 6.68839C16.4914 6.76439 16.4182 6.82777 16.3346 6.87467Z" fill="#C5C6C7"/>
</svg>
