<svg width="24" height="24" viewBox="0 0 24 24" fill="none" xmlns="http://www.w3.org/2000/svg">
<path d="M21.9991 11.9987V11.9938C21.9991 9.03471 20.7109 6.37733 18.6651 4.54991L18.6551 4.54157C18.6298 4.51436 18.6016 4.49004 18.5709 4.46908L18.5693 4.46824C16.7522 2.87312 14.4158 1.99554 11.9979 2.00002C9.47135 2.00002 7.16478 2.93831 5.40652 4.48658L5.41735 4.47741C5.39623 4.49356 5.37669 4.5117 5.35902 4.53157C4.30205 5.46756 3.456 6.61827 2.87692 7.90587C2.29784 9.19348 1.99893 10.5894 2 12.0013C2 14.9595 3.28661 17.6168 5.33069 19.4451L5.34069 19.4534C5.36728 19.4833 5.39688 19.5104 5.42902 19.5343L5.43069 19.5351C7.24714 21.1281 9.58191 22.0044 11.9979 22C14.4252 22.0037 16.77 21.1193 18.5901 19.5134L18.5793 19.5226C19.6546 18.5877 20.5166 17.4327 21.1069 16.1358C21.6972 14.8389 22.002 13.4303 22.0008 12.0054V11.9996L21.9991 11.9987ZM18.281 18.5026C17.7854 18.1022 17.2527 17.7501 16.6902 17.451L16.636 17.4243C17.1468 15.9519 17.4543 14.2545 17.4835 12.4887V12.4754H21.0342C20.9148 14.7599 19.9315 16.9136 18.2835 18.5001L18.281 18.5026ZM12.4762 17.2485C13.5453 17.306 14.5445 17.541 15.4661 17.9235L15.4061 17.9018C14.6678 19.5851 13.6287 20.7417 12.4762 20.9959V17.2485ZM12.4762 16.2952V12.4754H16.5327C16.5004 14.0572 16.2262 15.6247 15.7194 17.1235L15.7519 17.0144C14.7175 16.5885 13.6171 16.3455 12.4995 16.2961L12.477 16.2952H12.4762ZM12.4762 11.5221V7.70227C13.6238 7.65006 14.7536 7.39884 15.8152 6.9598L15.7494 6.98397C16.2119 8.33308 16.496 9.88801 16.5327 11.5046V11.5221H12.4762ZM12.4762 6.74898V3.00331C13.6287 3.25746 14.6678 4.40908 15.4061 6.09734C14.5445 6.45566 13.5453 6.68981 12.5004 6.74814L12.4762 6.74898ZM14.8544 3.41579C15.8366 3.74268 16.7551 4.23657 17.5693 4.87573L17.5502 4.86073C17.181 5.15071 16.7669 5.42404 16.3302 5.66153L16.2836 5.68486C15.9316 4.85169 15.4464 4.08137 14.8469 3.40412L14.8544 3.41329V3.41579ZM11.5213 3.00581V6.74898C10.4934 6.69661 9.48208 6.46831 8.53139 6.07401L8.59138 6.09567C9.33302 4.41241 10.3705 3.25663 11.5229 3.00247L11.5213 3.00581ZM7.71475 5.68236C7.26316 5.43914 6.83278 5.15844 6.42814 4.84323L6.44814 4.85823C7.23867 4.23779 8.12839 3.75546 9.0797 3.43162L9.14303 3.41246C8.55984 4.07179 8.0848 4.81936 7.73559 5.62736L7.71475 5.68236ZM11.5229 7.70144V11.5213H7.46643C7.5031 9.88718 7.78725 8.33224 8.28223 6.87397L8.24973 6.98313C9.28415 7.40688 10.3837 7.64957 11.5004 7.7006L11.5229 7.70144ZM11.5229 12.4746V16.2944C10.3753 16.3466 9.2455 16.5978 8.1839 17.0369L8.24973 17.0127C7.78725 15.6644 7.5031 14.1087 7.46643 12.4921V12.4746H11.5229ZM11.5229 17.2477V20.9934C10.3705 20.7392 9.33135 19.5876 8.59305 17.8993C9.45468 17.541 10.4538 17.3077 11.4988 17.2494L11.5229 17.2477ZM9.14803 20.5809C8.16672 20.2535 7.24855 19.7609 6.43314 19.1243L6.45314 19.1393C6.82229 18.8493 7.23644 18.576 7.67309 18.3385L7.71975 18.3151C8.06905 19.1485 8.55424 19.9181 9.15553 20.5925L9.14803 20.5842V20.5809ZM16.2844 18.3143C16.7677 18.5768 17.1818 18.8493 17.571 19.1534L17.551 19.1384C16.7605 19.7589 15.8708 20.2412 14.9194 20.565L14.8561 20.5842C15.4392 19.9251 15.9143 19.1778 16.2636 18.3701L16.2844 18.316V18.3143ZM21.0342 11.5221H17.4835C17.4574 9.79802 17.1599 8.0888 16.6019 6.45732L16.636 6.57232C17.2246 6.26231 17.7819 5.89618 18.3001 5.47903L18.2801 5.49403C19.9253 7.07418 20.9091 9.22014 21.0325 11.4979L21.0342 11.5221ZM5.71817 5.49487C6.19815 5.88485 6.7373 6.24233 7.30894 6.54649L7.3631 6.57315C6.85229 8.04559 6.54481 9.74301 6.51564 11.5088V11.5221H2.96413C3.08354 9.23762 4.06684 7.08394 5.71484 5.49737L5.71817 5.49487ZM2.96496 12.4754H6.51564C6.5417 14.1995 6.83922 15.9087 7.39727 17.5402L7.3631 17.4252C6.7373 17.7577 6.19899 18.1152 5.69901 18.5185L5.71901 18.5035C4.0738 16.9233 3.09002 14.7774 2.96663 12.4996L2.96579 12.4762L2.96496 12.4754Z" fill="white"/>
</svg>
