<svg width="24" height="24" viewBox="0 0 24 24" fill="none" xmlns="http://www.w3.org/2000/svg">
<path d="M15.5996 5.99951C17.7036 5.99951 19.4004 7.68814 19.4004 9.7583C19.4003 11.7047 18.2291 13.6401 16.626 15.2437C15.1049 16.7652 13.2878 17.891 12 18.3628C10.7122 17.891 8.89511 16.7652 7.37402 15.2437C5.77094 13.6401 4.59968 11.7047 4.59961 9.7583C4.59961 7.75278 6.19167 6.1053 8.2041 6.00439L8.40039 5.99951C9.0111 5.99908 9.61285 6.14482 10.1543 6.42334C10.6957 6.70185 11.161 7.10563 11.5107 7.59912C11.6232 7.75749 11.8058 7.85193 12 7.85205C12.1943 7.85205 12.3767 7.75749 12.4893 7.59912C13.1766 6.63216 14.3128 5.99964 15.5996 5.99951Z" stroke="#C5C6C7" stroke-width="1.2" stroke-linecap="round" stroke-linejoin="round"/>
</svg>
