<svg width="24" height="24" viewBox="0 0 24 24" fill="none" xmlns="http://www.w3.org/2000/svg">
<path d="M12.0039 2.75159C12.2526 2.75159 12.4927 2.84414 12.6768 3.01135V3.01038C12.6781 3.01165 12.6793 3.01302 12.6807 3.01428V3.01624L20.1807 10.0924L20.1826 10.0944C20.2832 10.1884 20.3634 10.302 20.418 10.4283C20.4726 10.5549 20.5007 10.6919 20.5 10.8297V19.4996C20.5 19.7648 20.3945 20.0191 20.207 20.2067C20.0195 20.3942 19.7652 20.4996 19.5 20.4996H15.75C15.4848 20.4996 15.2305 20.3942 15.043 20.2067C14.8555 20.0191 14.75 19.7648 14.75 19.4996V15.7496C14.7499 15.4182 14.6181 15.1002 14.3838 14.8658C14.1494 14.6315 13.8314 14.4996 13.5 14.4996H10.5C10.1686 14.4996 9.85062 14.6315 9.61621 14.8658C9.38187 15.1002 9.25009 15.4182 9.25 15.7496V19.4996C9.25 19.7648 9.14446 20.0191 8.95703 20.2067C8.7695 20.3942 8.51522 20.4996 8.25 20.4996H4.5C4.23478 20.4996 3.9805 20.3942 3.79297 20.2067C3.60554 20.0191 3.5 19.7648 3.5 19.4996V10.8326C3.49999 10.6943 3.52838 10.557 3.58398 10.4303C3.6396 10.3037 3.72142 10.1899 3.82324 10.0963L3.82812 10.0924L11.3281 3.01624L11.333 3.01135L11.3379 3.00549C11.521 2.84196 11.7582 2.75166 12.0039 2.75159Z" stroke="white"/>
</svg>
