<svg width="18" height="21" viewBox="0 0 18 21" fill="none" xmlns="http://www.w3.org/2000/svg">
<path d="M7.95 20.95C7.11667 20.8667 6.31667 20.6627 5.55 20.338C4.78333 20.0133 4.05 19.584 3.35 19.05L4.75 17.6C5.23333 17.95 5.746 18.2333 6.288 18.45C6.83 18.6667 7.384 18.8167 7.95 18.9V20.95ZM9.95 20.95V18.9C11.6833 18.65 13.1167 17.871 14.25 16.563C15.3833 15.255 15.95 13.734 15.95 12C15.95 10.05 15.271 8.396 13.913 7.038C12.555 5.68 10.9007 5.00067 8.95 5H8.75L10.35 6.6L8.95 8L4.95 4L8.95 0L10.35 1.45L8.8 3H8.95C10.2 3 11.371 3.23767 12.463 3.713C13.555 4.18833 14.505 4.83 15.313 5.638C16.121 6.446 16.7627 7.396 17.238 8.488C17.7133 9.58 17.9507 10.7507 17.95 12C17.95 14.2833 17.1917 16.271 15.675 17.963C14.1583 19.655 12.25 20.6507 9.95 20.95ZM1.9 17.6C1.36667 16.9 0.937333 16.1667 0.612 15.4C0.286667 14.6333 0.0826667 13.8333 0 13H2.05C2.13333 13.5667 2.28333 14.121 2.5 14.663C2.71667 15.205 3 15.7173 3.35 16.2L1.9 17.6ZM0 11C0.1 10.15 0.308333 9.33333 0.625 8.55C0.941667 7.76667 1.36667 7.05 1.9 6.4L3.35 7.8C3 8.28333 2.71667 8.796 2.5 9.338C2.28333 9.88 2.13333 10.434 2.05 11H0Z" fill="white"/>
</svg>
