<svg width="24" height="24" viewBox="0 0 24 24" fill="none" xmlns="http://www.w3.org/2000/svg">
<path d="M11.0008 21.9998C10.1674 21.9165 9.36745 21.7125 8.60078 21.3878C7.83412 21.0631 7.10078 20.6338 6.40078 20.0998L7.80078 18.6498C8.28411 18.9998 8.79678 19.2831 9.33878 19.4998C9.88078 19.7165 10.4348 19.8665 11.0008 19.9498V21.9998ZM13.0008 21.9998V19.9498C14.7341 19.6998 16.1674 18.9208 17.3008 17.6128C18.4341 16.3048 19.0008 14.7838 19.0008 13.0498C19.0008 11.0998 18.3218 9.4458 16.9638 8.0878C15.6058 6.7298 13.9514 6.05047 12.0008 6.0498H11.8008L13.4008 7.64981L12.0008 9.0498L8.00078 5.0498L12.0008 1.0498L13.4008 2.4998L11.8508 4.0498H12.0008C13.2508 4.0498 14.4218 4.28747 15.5138 4.7628C16.6058 5.23814 17.5558 5.87981 18.3638 6.68781C19.1718 7.49581 19.8134 8.4458 20.2888 9.5378C20.7641 10.6298 21.0014 11.8005 21.0008 13.0498C21.0008 15.3331 20.2424 17.3208 18.7258 19.0128C17.2091 20.7048 15.3008 21.7005 13.0008 21.9998ZM4.95078 18.6498C4.41745 17.9498 3.98811 17.2165 3.66278 16.4498C3.33745 15.6831 3.13345 14.8831 3.05078 14.0498H5.10078C5.18411 14.6165 5.33411 15.1708 5.55078 15.7128C5.76745 16.2548 6.05078 16.7671 6.40078 17.2498L4.95078 18.6498ZM3.05078 12.0498C3.15078 11.1998 3.35911 10.3831 3.67578 9.5998C3.99245 8.81647 4.41745 8.0998 4.95078 7.4498L6.40078 8.8498C6.05078 9.33314 5.76745 9.8458 5.55078 10.3878C5.33411 10.9298 5.18411 11.4838 5.10078 12.0498H3.05078Z" fill="white"/>
</svg>
