<svg width="24" height="24" viewBox="0 0 24 24" fill="none" xmlns="http://www.w3.org/2000/svg">
<path d="M12.9992 21.9998C13.8326 21.9165 14.6326 21.7125 15.3992 21.3878C16.1659 21.0631 16.8992 20.6338 17.5992 20.0998L16.1992 18.6498C15.7159 18.9998 15.2032 19.2831 14.6612 19.4998C14.1192 19.7165 13.5652 19.8665 12.9992 19.9498V21.9998ZM10.9992 21.9998V19.9498C9.26589 19.6998 7.83255 18.9208 6.69922 17.6128C5.56589 16.3048 4.99922 14.7838 4.99922 13.0498C4.99922 11.0998 5.67822 9.4458 7.03622 8.0878C8.39422 6.7298 10.0486 6.05047 11.9992 6.0498H12.1992L10.5992 7.64981L11.9992 9.0498L15.9992 5.0498L11.9992 1.0498L10.5992 2.4998L12.1492 4.0498H11.9992C10.7492 4.0498 9.57822 4.28747 8.48622 4.7628C7.39422 5.23814 6.44422 5.87981 5.63622 6.68781C4.82822 7.49581 4.18655 8.4458 3.71122 9.5378C3.23588 10.6298 2.99855 11.8005 2.99922 13.0498C2.99922 15.3331 3.75755 17.3208 5.27422 19.0128C6.79088 20.7048 8.69922 21.7005 10.9992 21.9998ZM19.0492 18.6498C19.5826 17.9498 20.0119 17.2165 20.3372 16.4498C20.6626 15.6831 20.8666 14.8831 20.9492 14.0498H18.8992C18.8159 14.6165 18.6659 15.1708 18.4492 15.7128C18.2326 16.2548 17.9492 16.7671 17.5992 17.2498L19.0492 18.6498ZM20.9492 12.0498C20.8492 11.1998 20.6409 10.3831 20.3242 9.5998C20.0076 8.81647 19.5826 8.0998 19.0492 7.4498L17.5992 8.8498C17.9492 9.33314 18.2326 9.8458 18.4492 10.3878C18.6659 10.9298 18.8159 11.4838 18.8992 12.0498H20.9492Z" fill="white"/>
</svg>
