<svg width="16" height="16" viewBox="0 0 16 16" fill="none" xmlns="http://www.w3.org/2000/svg">
<path d="M14.4632 2.77145C14.4632 2.77145 14.4632 2.7777 14.4632 2.78083L10.8257 14.7771C10.7707 14.9719 10.6573 15.1453 10.5009 15.2739C10.3445 15.4024 10.1525 15.4801 9.95073 15.4965C9.92198 15.499 9.89323 15.5002 9.86448 15.5002C9.67535 15.5008 9.49 15.4473 9.33031 15.3459C9.17062 15.2446 9.04324 15.0997 8.96323 14.9283L6.73135 10.2165C6.70932 10.1698 6.70224 10.1176 6.71108 10.0668C6.71991 10.016 6.74424 9.96914 6.78073 9.9327L10.3595 6.35333C10.4493 6.2588 10.4986 6.13292 10.4969 6.00254C10.4953 5.87216 10.4427 5.74759 10.3505 5.65539C10.2583 5.56319 10.1338 5.51065 10.0034 5.50898C9.87301 5.50731 9.74714 5.55664 9.6526 5.64645L6.06823 9.2252C6.0318 9.26169 5.98498 9.28602 5.93418 9.29486C5.88338 9.3037 5.83109 9.29661 5.78448 9.27458L1.09698 7.05395C0.912881 6.96961 0.757952 6.83253 0.651811 6.66008C0.545669 6.48763 0.493089 6.28756 0.500729 6.0852C0.510909 5.87723 0.586203 5.67771 0.715967 5.51486C0.845731 5.35201 1.0234 5.23407 1.22385 5.1777L13.2201 1.5402H13.2295C13.4003 1.49222 13.5808 1.49053 13.7524 1.53533C13.9241 1.58012 14.0808 1.66978 14.2063 1.79511C14.3319 1.92043 14.4219 2.07691 14.467 2.24848C14.5122 2.42006 14.5109 2.60055 14.4632 2.77145Z" fill="#F09345"/>
</svg>
